<svg width="107" height="24" viewBox="0 0 107 24" fill="none" xmlns="http://www.w3.org/2000/svg">
<path d="M6.22856 3.456H0.660559V0.912H14.9406V3.456H9.34856V18H6.22856V3.456ZM21.4935 5.592C21.9575 5.592 22.3575 5.656 22.6935 5.784L22.6695 8.52C22.1575 8.312 21.6295 8.208 21.0855 8.208C20.0615 8.208 19.2775 8.504 18.7335 9.096C18.2055 9.688 17.9415 10.472 17.9415 11.448V18H14.9655V9.312C14.9655 8.032 14.9015 6.888 14.7735 5.88H17.5815L17.8215 8.016C18.1255 7.232 18.6055 6.632 19.2615 6.216C19.9175 5.8 20.6615 5.592 21.4935 5.592ZM35.7216 5.88V18H32.7696V16.056C32.4016 16.728 31.8736 17.256 31.1856 17.64C30.4976 18.008 29.7136 18.192 28.8336 18.192C27.7776 18.192 26.8416 17.936 26.0256 17.424C25.2096 16.912 24.5776 16.184 24.1296 15.24C23.6816 14.296 23.4576 13.2 23.4576 11.952C23.4576 10.704 23.6816 9.6 24.1296 8.64C24.5936 7.664 25.2336 6.912 26.0496 6.384C26.8656 5.84 27.7936 5.568 28.8336 5.568C29.7136 5.568 30.4976 5.76 31.1856 6.144C31.8736 6.512 32.4016 7.032 32.7696 7.704V5.88H35.7216ZM29.6496 15.84C30.6416 15.84 31.4096 15.496 31.9536 14.808C32.4976 14.12 32.7696 13.152 32.7696 11.904C32.7696 10.624 32.4976 9.64 31.9536 8.952C31.4096 8.264 30.6336 7.92 29.6256 7.92C28.6336 7.92 27.8576 8.28 27.2976 9C26.7536 9.704 26.4816 10.688 26.4816 11.952C26.4816 13.2 26.7536 14.16 27.2976 14.832C27.8576 15.504 28.6416 15.84 29.6496 15.84ZM44.7249 2.712C43.4289 2.712 42.7809 3.424 42.7809 4.848V5.88H45.4929V8.136H42.7809V18H39.7809V8.136H37.4769V5.88H39.7809V4.704C39.7809 3.264 40.1409 2.16 40.8609 1.392C41.5969 0.607999 42.6449 0.215999 44.0049 0.215999C44.7569 0.215999 45.3889 0.311999 45.9009 0.503999V2.88C45.4529 2.768 45.0609 2.712 44.7249 2.712ZM59.2762 5.88V18H56.3242V16.056C55.9562 16.728 55.4282 17.256 54.7402 17.64C54.0522 18.008 53.2682 18.192 52.3882 18.192C51.3322 18.192 50.3962 17.936 49.5802 17.424C48.7642 16.912 48.1322 16.184 47.6842 15.24C47.2362 14.296 47.0122 13.2 47.0122 11.952C47.0122 10.704 47.2362 9.6 47.6842 8.64C48.1482 7.664 48.7882 6.912 49.6042 6.384C50.4202 5.84 51.3482 5.568 52.3882 5.568C53.2682 5.568 54.0522 5.76 54.7402 6.144C55.4282 6.512 55.9562 7.032 56.3242 7.704V5.88H59.2762ZM53.2042 15.84C54.1962 15.84 54.9642 15.496 55.5082 14.808C56.0522 14.12 56.3242 13.152 56.3242 11.904C56.3242 10.624 56.0522 9.64 55.5082 8.952C54.9642 8.264 54.1882 7.92 53.1802 7.92C52.1882 7.92 51.4122 8.28 50.8522 9C50.3082 9.704 50.0362 10.688 50.0362 11.952C50.0362 13.2 50.3082 14.16 50.8522 14.832C51.4122 15.504 52.1962 15.84 53.2042 15.84ZM62.5436 0.335999H65.5196V18H62.5436V0.335999ZM80.5134 5.88V17.616C80.5134 19.504 79.9934 20.936 78.9534 21.912C77.9134 22.888 76.3854 23.376 74.3694 23.376C72.4974 23.376 70.8494 22.984 69.4254 22.2L69.9054 19.92C71.3774 20.688 72.8414 21.072 74.2974 21.072C76.4574 21.072 77.5374 20 77.5374 17.856V15.456C77.1694 16.112 76.6334 16.648 75.9294 17.064C75.2254 17.464 74.4334 17.664 73.5534 17.664C72.4974 17.664 71.5534 17.416 70.7214 16.92C69.9054 16.408 69.2654 15.696 68.8014 14.784C68.3534 13.856 68.1294 12.8 68.1294 11.616C68.1294 10.432 68.3534 9.384 68.8014 8.472C69.2654 7.544 69.9054 6.832 70.7214 6.336C71.5534 5.824 72.4974 5.568 73.5534 5.568C74.4494 5.568 75.2414 5.76 75.9294 6.144C76.6334 6.512 77.1694 7.032 77.5374 7.704V5.88H80.5134ZM74.3454 15.312C75.3374 15.312 76.1134 14.984 76.6734 14.328C77.2494 13.672 77.5374 12.768 77.5374 11.616C77.5374 10.464 77.2574 9.56 76.6974 8.904C76.1374 8.248 75.3534 7.92 74.3454 7.92C73.3534 7.92 72.5694 8.248 71.9934 8.904C71.4334 9.56 71.1534 10.464 71.1534 11.616C71.1534 12.768 71.4334 13.672 71.9934 14.328C72.5694 14.984 73.3534 15.312 74.3454 15.312ZM95.3466 5.88V18H92.3946V16.056C92.0266 16.728 91.4986 17.256 90.8106 17.64C90.1226 18.008 89.3386 18.192 88.4586 18.192C87.4026 18.192 86.4666 17.936 85.6506 17.424C84.8346 16.912 84.2026 16.184 83.7546 15.24C83.3066 14.296 83.0826 13.2 83.0826 11.952C83.0826 10.704 83.3066 9.6 83.7546 8.64C84.2186 7.664 84.8586 6.912 85.6746 6.384C86.4906 5.84 87.4186 5.568 88.4586 5.568C89.3386 5.568 90.1226 5.76 90.8106 6.144C91.4986 6.512 92.0266 7.032 92.3946 7.704V5.88H95.3466ZM89.2746 15.84C90.2666 15.84 91.0346 15.496 91.5786 14.808C92.1226 14.12 92.3946 13.152 92.3946 11.904C92.3946 10.624 92.1226 9.64 91.5786 8.952C91.0346 8.264 90.2586 7.92 89.2506 7.92C88.2586 7.92 87.4826 8.28 86.9226 9C86.3786 9.704 86.1066 10.688 86.1066 11.952C86.1066 13.2 86.3786 14.16 86.9226 14.832C87.4826 15.504 88.2666 15.84 89.2746 15.84ZM105.142 5.592C105.606 5.592 106.006 5.656 106.342 5.784L106.318 8.52C105.806 8.312 105.278 8.208 104.734 8.208C103.71 8.208 102.926 8.504 102.382 9.096C101.854 9.688 101.59 10.472 101.59 11.448V18H98.6139V9.312C98.6139 8.032 98.5499 6.888 98.4219 5.88H101.23L101.47 8.016C101.774 7.232 102.254 6.632 102.91 6.216C103.566 5.8 104.31 5.592 105.142 5.592Z" fill="#233348"/>
</svg>
